<svg width="12" height="12" viewBox="0 0 12 12" fill="none" xmlns="http://www.w3.org/2000/svg">
<path d="M6.46824 9.33397L11.8083 3.99382C11.9319 3.87031 12 3.70543 12 3.52963C12 3.35383 11.9319 3.18895 11.8083 3.06544L11.4151 2.67218C11.1589 2.41628 10.7425 2.41628 10.4867 2.67218L6.00249 7.15643L1.51326 2.6672C1.38965 2.54369 1.22487 2.47549 1.04916 2.47549C0.873261 2.47549 0.708482 2.54369 0.584775 2.6672L0.191706 3.06046C0.0680971 3.18407 0 3.34885 0 3.52466C0 3.70046 0.0680971 3.86534 0.191706 3.98885L5.53664 9.33397C5.66064 9.45777 5.8262 9.52577 6.00219 9.52538C6.17888 9.52577 6.34434 9.45777 6.46824 9.33397Z" fill="white"/>
</svg>
