<svg width="66" height="66" viewBox="0 0 66 66" fill="none" xmlns="http://www.w3.org/2000/svg">
<g clip-path="url(#clip0)">
<path d="M49.966 10.0989L37.8227 1.5272C34.9382 -0.509033 31.0622 -0.508773 28.1776 1.5272L16.0342 10.0991C13.1138 12.1605 11.3704 15.5253 11.3704 19.1V57.0779C11.3704 61.9977 15.3728 66.0002 20.2926 66.0002H45.7077C50.6274 66.0002 54.6299 61.9977 54.6299 57.0779V19.0999C54.6299 15.5252 52.8863 12.1604 49.966 10.0989ZM50.4732 57.0777C50.4732 59.7055 48.3354 61.8433 45.7077 61.8433H20.2924C17.6647 61.8433 15.5269 59.7055 15.5269 57.0777V19.0999C15.5269 16.8739 16.6125 14.7784 18.4312 13.4948L30.5745 4.92303C32.0251 3.89907 33.9747 3.89894 35.4254 4.92303L47.5688 13.4948C49.3874 14.7785 50.4731 16.8739 50.4731 19.0999V57.0777H50.4732Z" fill="white"/>
<path d="M33 14.062C34.5188 14.062 35.75 12.8308 35.75 11.312C35.75 9.79323 34.5188 8.56201 33 8.56201C31.4812 8.56201 30.25 9.79323 30.25 11.312C30.25 12.8308 31.4812 14.062 33 14.062Z" fill="white"/>
<path d="M33.1096 35.7811C31.5275 35.7259 30.6198 34.5863 30.6198 33.361C30.6198 30.9207 33.8478 30.0254 35.1085 32.1169C35.701 33.0999 36.9782 33.4166 37.9613 32.824C38.9443 32.2314 39.261 30.9542 38.6684 29.9711C37.8336 28.5861 36.5127 27.5735 35.0034 27.0959V25.9301C35.0034 24.7824 34.0729 23.8518 32.9251 23.8518C31.7774 23.8518 30.8468 24.7824 30.8468 25.9301V27.1644C28.2958 28.0683 26.4631 30.5041 26.4631 33.361C26.4631 37.0588 29.517 39.9341 32.9636 39.9341C34.296 39.9341 35.38 41.018 35.38 42.3505C35.38 44.791 32.152 45.6862 30.8912 43.5945C30.2988 42.6115 29.0215 42.2949 28.0385 42.8875C27.0555 43.4801 26.7388 44.7573 27.3314 45.7404C28.1662 47.1254 29.4871 48.138 30.9963 48.6157V49.7815C30.9963 50.9293 31.9269 51.8598 33.0746 51.8598C34.2224 51.8598 35.153 50.9293 35.153 49.7815V48.5473C37.704 47.6433 39.5366 45.2075 39.5366 42.3505C39.5366 38.7749 36.6666 35.8591 33.1096 35.7811Z" fill="white"/>
</g>
<defs>
<clipPath id="clip0">
<rect width="66" height="66" fill="white"/>
</clipPath>
</defs>
</svg>
