<svg width="65" height="65" viewBox="0 0 65 65" fill="none" xmlns="http://www.w3.org/2000/svg">
<g clip-path="url(#clip0)">
<path d="M56.6981 21.6052H39.3239L39.8704 13.3061C40.0438 10.6711 39.1082 8.05438 37.3032 6.1268C32.6061 1.11035 24.2696 2.52775 21.5192 8.85734L15.9792 21.6052H2.03667C0.911793 21.6052 0 22.5172 0 23.6419V59.867C0 60.9918 0.911793 61.9037 2.03667 61.9037H17.3148C18.3671 61.9037 19.2327 61.1056 19.34 60.0818H35.5893C47.2633 60.0818 57.6532 52.6633 61.4433 41.6219L64.543 32.5927C66.391 27.2095 62.4058 21.6052 56.6981 21.6052ZM4.07334 25.6786H15.2781V57.8304H4.07334V25.6786ZM60.6904 31.2701L57.5907 40.2995C54.3653 49.6955 45.5236 56.0084 35.5892 56.0084H19.3514V24.0653L25.255 10.4807C26.1296 8.4677 28.1131 7.16703 30.308 7.16703C33.4774 7.16703 36.0163 9.83825 35.8056 13.0385L35.1163 23.5081C35.0393 24.6814 35.9703 25.6786 37.1486 25.6786H56.698C59.5947 25.6786 61.6331 28.5236 60.6904 31.2701Z" fill="white"/>
<path d="M9.6758 35.2846C11.2144 35.2846 12.4617 34.0373 12.4617 32.4987C12.4617 30.96 11.2144 29.7127 9.6758 29.7127C8.13719 29.7127 6.88989 30.96 6.88989 32.4987C6.88989 34.0373 8.13719 35.2846 9.6758 35.2846Z" fill="white"/>
</g>
<defs>
<clipPath id="clip0">
<rect width="65" height="65" fill="white"/>
</clipPath>
</defs>
</svg>
