<svg width="63" height="63" viewBox="0 0 63 63" fill="none" xmlns="http://www.w3.org/2000/svg">
<g clip-path="url(#clip0)">
<path d="M57.238 15.7365H56.4541V8.12401C56.4541 4.94693 53.8694 2.36203 50.6922 2.36203H8.90039C4.28863 2.36203 0.486232 5.88949 0.047294 10.3878C-0.0197403 10.7057 0.00412984 7.87344 0.00412984 51.7417C0.00412984 56.6471 3.99489 60.6378 8.90027 60.6378H57.2379C60.4151 60.6378 62.9999 58.0531 62.9999 54.8759V21.4985C63 18.3214 60.4152 15.7365 57.238 15.7365ZM8.90039 6.3199H50.6922C51.687 6.3199 52.4964 7.12926 52.4964 8.12413V15.7366H8.90039C6.25452 15.7366 4.08852 13.6448 3.96781 11.0283C4.0884 8.41157 6.25439 6.3199 8.90039 6.3199ZM57.238 56.6801H8.90039C6.17734 56.6801 3.96199 54.4647 3.96199 51.7417V18.1945C5.37577 19.1415 7.07463 19.6942 8.90039 19.6942H57.238C58.2329 19.6942 59.0423 20.5036 59.0423 21.4985V29.5211H44.1503C39.0785 29.5211 34.9523 33.6471 34.9523 38.7189C34.9523 43.7906 39.0785 47.9167 44.1503 47.9167H59.0423V54.8759C59.0423 55.8707 58.2329 56.6801 57.238 56.6801ZM59.0423 43.959H44.1503C41.2609 43.959 38.9101 41.6084 38.9101 38.719C38.9101 35.8296 41.2607 33.4789 44.1503 33.4789H59.0423V43.959Z" fill="white"/>
<path d="M44.8806 41.5869C46.4645 41.5869 47.7485 40.3029 47.7485 38.719C47.7485 37.1351 46.4645 35.8511 44.8806 35.8511C43.2967 35.8511 42.0127 37.1351 42.0127 38.719C42.0127 40.3029 43.2967 41.5869 44.8806 41.5869Z" fill="white"/>
</g>
<defs>
<clipPath id="clip0">
<rect width="63" height="63" fill="white"/>
</clipPath>
</defs>
</svg>
