<svg width="129" height="15" viewBox="0 0 129 15" fill="none" xmlns="http://www.w3.org/2000/svg">
<path d="M0.577 14H10.324V11.492H3.655V0.699999H0.577V14ZM12.0438 14H15.1218V0.699999H12.0438V14ZM27.2652 11.036C26.4862 11.454 25.7072 11.606 24.8712 11.606C22.3252 11.606 20.5582 9.839 20.5582 7.35C20.5582 4.823 22.3252 3.094 24.9092 3.094C26.2582 3.094 27.3792 3.569 28.3482 4.595L30.3242 2.771C29.0322 1.27 27.0942 0.472 24.7572 0.472C20.5202 0.472 17.4422 3.341 17.4422 7.35C17.4422 11.359 20.5202 14.228 24.7002 14.228C26.6002 14.228 28.6142 13.639 30.0772 12.537V7.141H27.2652V11.036ZM42.0564 0.699999V5.944H36.0144V0.699999H32.9364V14H36.0144V8.547H42.0564V14H45.1344V0.699999H42.0564ZM51.0361 14H54.1141V3.208H58.3701V0.699999H46.7801V3.208H51.0361V14ZM69.7922 7.084C70.8752 6.514 71.5592 5.488 71.5592 4.158C71.5592 2.087 69.8492 0.699999 66.5242 0.699999H60.0262V14H66.9042C70.4002 14 72.2242 12.67 72.2242 10.371C72.2242 8.699 71.2742 7.559 69.7922 7.084ZM66.1442 3.018C67.6452 3.018 68.4622 3.531 68.4622 4.576C68.4622 5.621 67.6452 6.153 66.1442 6.153H63.0852V3.018H66.1442ZM66.6762 11.682H63.0852V8.395H66.6762C68.2722 8.395 69.1272 8.927 69.1272 10.048C69.1272 11.188 68.2722 11.682 66.6762 11.682ZM80.9955 14.228C85.1755 14.228 88.2725 11.321 88.2725 7.35C88.2725 3.379 85.1755 0.472 80.9955 0.472C76.7965 0.472 73.7185 3.398 73.7185 7.35C73.7185 11.302 76.7965 14.228 80.9955 14.228ZM80.9955 11.606C78.6205 11.606 76.8345 9.877 76.8345 7.35C76.8345 4.823 78.6205 3.094 80.9955 3.094C83.3705 3.094 85.1565 4.823 85.1565 7.35C85.1565 9.877 83.3705 11.606 80.9955 11.606ZM97.0268 14.228C101.207 14.228 104.304 11.321 104.304 7.35C104.304 3.379 101.207 0.472 97.0268 0.472C92.8278 0.472 89.7498 3.398 89.7498 7.35C89.7498 11.302 92.8278 14.228 97.0268 14.228ZM97.0268 11.606C94.6518 11.606 92.8658 9.877 92.8658 7.35C92.8658 4.823 94.6518 3.094 97.0268 3.094C99.4018 3.094 101.188 4.823 101.188 7.35C101.188 9.877 99.4018 11.606 97.0268 11.606ZM110.987 14.228C114.787 14.228 116.63 12.328 116.63 10.105C116.63 5.222 108.897 6.913 108.897 4.462C108.897 3.626 109.6 2.942 111.424 2.942C112.602 2.942 113.875 3.284 115.11 3.987L116.06 1.65C114.825 0.870999 113.115 0.472 111.443 0.472C107.662 0.472 105.838 2.353 105.838 4.614C105.838 9.554 113.571 7.844 113.571 10.333C113.571 11.15 112.83 11.758 111.006 11.758C109.41 11.758 107.738 11.188 106.617 10.371L105.572 12.689C106.75 13.601 108.878 14.228 110.987 14.228ZM121.303 14H124.381V3.208H128.637V0.699999H117.047V3.208H121.303V14Z" fill="white"/>
</svg>
