<svg width="129" height="15" viewBox="0 0 129 15" fill="none" xmlns="http://www.w3.org/2000/svg">
<path d="M0.577 0.699999H3.655V11.492H10.324V14H0.577V0.699999ZM12.0438 0.699999H15.1218V14H12.0438V0.699999ZM27.2652 7.141H30.0772V12.537C29.3552 13.0817 28.5192 13.4997 27.5692 13.791C26.6192 14.0823 25.6628 14.228 24.7002 14.228C23.3195 14.228 22.0782 13.9367 20.9762 13.354C19.8742 12.7587 19.0065 11.9417 18.3732 10.903C17.7525 9.85167 17.4422 8.66733 17.4422 7.35C17.4422 6.03267 17.7525 4.85467 18.3732 3.816C19.0065 2.76467 19.8805 1.94767 20.9952 1.365C22.1098 0.769666 23.3638 0.472 24.7572 0.472C25.9225 0.472 26.9802 0.668333 27.9302 1.061C28.8802 1.45367 29.6782 2.02367 30.3242 2.771L28.3482 4.595C27.3982 3.59433 26.2518 3.094 24.9092 3.094C24.0605 3.094 23.3068 3.27133 22.6482 3.626C21.9895 3.98067 21.4765 4.481 21.1092 5.127C20.7418 5.773 20.5582 6.514 20.5582 7.35C20.5582 8.17333 20.7418 8.908 21.1092 9.554C21.4765 10.2 21.9832 10.7067 22.6292 11.074C23.2878 11.4287 24.0352 11.606 24.8712 11.606C25.7578 11.606 26.5558 11.416 27.2652 11.036V7.141ZM45.1344 0.699999V14H42.0564V8.547H36.0144V14H32.9364V0.699999H36.0144V5.944H42.0564V0.699999H45.1344ZM51.0361 3.208H46.7801V0.699999H58.3701V3.208H54.1141V14H51.0361V3.208ZM69.7922 7.084C70.5522 7.32467 71.1476 7.73 71.5782 8.3C72.0089 8.85733 72.2242 9.54767 72.2242 10.371C72.2242 11.5363 71.7682 12.4357 70.8562 13.069C69.9569 13.6897 68.6396 14 66.9042 14H60.0262V0.699999H66.5242C68.1456 0.699999 69.3869 1.01033 70.2482 1.631C71.1222 2.25167 71.5592 3.094 71.5592 4.158C71.5592 4.804 71.4009 5.38033 71.0842 5.887C70.7802 6.39367 70.3496 6.79267 69.7922 7.084ZM63.0852 3.018V6.153H66.1442C66.9042 6.153 67.4806 6.02 67.8732 5.754C68.2659 5.488 68.4622 5.09533 68.4622 4.576C68.4622 4.05667 68.2659 3.67033 67.8732 3.417C67.4806 3.151 66.9042 3.018 66.1442 3.018H63.0852ZM66.6762 11.682C67.4869 11.682 68.0949 11.549 68.5002 11.283C68.9182 11.017 69.1272 10.6053 69.1272 10.048C69.1272 8.946 68.3102 8.395 66.6762 8.395H63.0852V11.682H66.6762ZM80.9955 14.228C79.6149 14.228 78.3672 13.9303 77.2525 13.335C76.1505 12.7397 75.2829 11.9227 74.6495 10.884C74.0289 9.83267 73.7185 8.65467 73.7185 7.35C73.7185 6.04533 74.0289 4.87367 74.6495 3.835C75.2829 2.78367 76.1505 1.96033 77.2525 1.365C78.3672 0.769666 79.6149 0.472 80.9955 0.472C82.3762 0.472 83.6175 0.769666 84.7195 1.365C85.8215 1.96033 86.6892 2.78367 87.3225 3.835C87.9559 4.87367 88.2725 6.04533 88.2725 7.35C88.2725 8.65467 87.9559 9.83267 87.3225 10.884C86.6892 11.9227 85.8215 12.7397 84.7195 13.335C83.6175 13.9303 82.3762 14.228 80.9955 14.228ZM80.9955 11.606C81.7809 11.606 82.4902 11.4287 83.1235 11.074C83.7569 10.7067 84.2509 10.2 84.6055 9.554C84.9729 8.908 85.1565 8.17333 85.1565 7.35C85.1565 6.52667 84.9729 5.792 84.6055 5.146C84.2509 4.5 83.7569 3.99967 83.1235 3.645C82.4902 3.27767 81.7809 3.094 80.9955 3.094C80.2102 3.094 79.5009 3.27767 78.8675 3.645C78.2342 3.99967 77.7339 4.5 77.3665 5.146C77.0119 5.792 76.8345 6.52667 76.8345 7.35C76.8345 8.17333 77.0119 8.908 77.3665 9.554C77.7339 10.2 78.2342 10.7067 78.8675 11.074C79.5009 11.4287 80.2102 11.606 80.9955 11.606ZM97.0268 14.228C95.6461 14.228 94.3985 13.9303 93.2838 13.335C92.1818 12.7397 91.3141 11.9227 90.6808 10.884C90.0601 9.83267 89.7498 8.65467 89.7498 7.35C89.7498 6.04533 90.0601 4.87367 90.6808 3.835C91.3141 2.78367 92.1818 1.96033 93.2838 1.365C94.3985 0.769666 95.6461 0.472 97.0268 0.472C98.4075 0.472 99.6488 0.769666 100.751 1.365C101.853 1.96033 102.72 2.78367 103.354 3.835C103.987 4.87367 104.304 6.04533 104.304 7.35C104.304 8.65467 103.987 9.83267 103.354 10.884C102.72 11.9227 101.853 12.7397 100.751 13.335C99.6488 13.9303 98.4075 14.228 97.0268 14.228ZM97.0268 11.606C97.8121 11.606 98.5215 11.4287 99.1548 11.074C99.7881 10.7067 100.282 10.2 100.637 9.554C101.004 8.908 101.188 8.17333 101.188 7.35C101.188 6.52667 101.004 5.792 100.637 5.146C100.282 4.5 99.7881 3.99967 99.1548 3.645C98.5215 3.27767 97.8121 3.094 97.0268 3.094C96.2415 3.094 95.5321 3.27767 94.8988 3.645C94.2655 3.99967 93.7651 4.5 93.3978 5.146C93.0431 5.792 92.8658 6.52667 92.8658 7.35C92.8658 8.17333 93.0431 8.908 93.3978 9.554C93.7651 10.2 94.2655 10.7067 94.8988 11.074C95.5321 11.4287 96.2415 11.606 97.0268 11.606ZM110.987 14.228C109.936 14.228 108.916 14.0887 107.928 13.81C106.953 13.5187 106.167 13.145 105.572 12.689L106.617 10.371C107.187 10.789 107.865 11.1247 108.65 11.378C109.435 11.6313 110.221 11.758 111.006 11.758C111.88 11.758 112.526 11.6313 112.944 11.378C113.362 11.112 113.571 10.7637 113.571 10.333C113.571 10.0163 113.444 9.75667 113.191 9.554C112.95 9.33867 112.634 9.16767 112.241 9.041C111.861 8.91433 111.342 8.775 110.683 8.623C109.67 8.38233 108.84 8.14167 108.194 7.901C107.548 7.66033 106.991 7.274 106.522 6.742C106.066 6.21 105.838 5.50067 105.838 4.614C105.838 3.84133 106.047 3.14467 106.465 2.524C106.883 1.89067 107.51 1.39033 108.346 1.023C109.195 0.655666 110.227 0.472 111.443 0.472C112.292 0.472 113.121 0.573333 113.932 0.775999C114.743 0.978666 115.452 1.27 116.06 1.65L115.11 3.987C113.881 3.29033 112.653 2.942 111.424 2.942C110.563 2.942 109.923 3.08133 109.505 3.36C109.1 3.63867 108.897 4.006 108.897 4.462C108.897 4.918 109.131 5.26 109.6 5.488C110.081 5.70333 110.81 5.91867 111.785 6.134C112.798 6.37467 113.628 6.61533 114.274 6.856C114.92 7.09667 115.471 7.47667 115.927 7.996C116.396 8.51533 116.63 9.21833 116.63 10.105C116.63 10.865 116.415 11.5617 115.984 12.195C115.566 12.8157 114.933 13.3097 114.084 13.677C113.235 14.0443 112.203 14.228 110.987 14.228ZM121.303 3.208H117.047V0.699999H128.637V3.208H124.381V14H121.303V3.208Z" fill="#1F271B"/>
</svg>
